# xmcd
#
# Track frame offsets: 
#        150
#        15830
#        34219
#        49988
#        66903
#        81785
#        94720
#        112482
#        134203
#        150594
#        164678
#        182178
#        193733
#        212004
#        228070
#        243070
#        259857
#        273083
#        286177
#        305071
#
# Disc length: 4313 seconds
#
# Revision: 0
# Processed by: cddbd v1.5.2PL0 Copyright (c) Steve Scherf et al.
# Submitted via: ExactAudioCopy v1.1
#
DISCID=2010d714
DTITLE=Various Artist - Het Beste Uit De MNM 1000 (2018) - CD 1
DYEAR=2018
DGENRE=Top 40
TTITLE0=Queen - Don't Stop Me Now
TTITLE1=The Chainsmokers Feat. Halsey - Closer
TTITLE2=Dua Lipa - New Rules
TTITLE3=Calvin Harris Feat. Ellie Goulding - I Need Your Love
TTITLE4=Avicii - Levels
TTITLE5=Spice Girls - Wannabe
TTITLE6=Kendrick Lamar - King Kunta
TTITLE7=Justin Timberlake - Cry Me A River
TTITLE8=Shakira Feat. Wyclef Jean - Hips Don't Lie
TTITLE9=Imagine Dragons - Thunder
TTITLE10=Spring - Te Min Voor Anja
TTITLE11=Kraantje Pappie - Pompen
TTITLE12=Pitbull Feat. Ne-Yo, Afrojack and Nayer - Give Me Everything
TTITLE13=2 Fabiola - Freak Out
TTITLE14=*N Sync - Bye Bye Bye
TTITLE15=Soulsister - The Way To Your Heart
TTITLE16=Van Echelpoel - Ziet Em Duun
TTITLE17=Blanche - City Lights
TTITLE18=The Cranberries - Zombie
TTITLE19=Disturbed - The Sound Of Silence
EXTD=
EXTT0=
EXTT1=
EXTT2=
EXTT3=
EXTT4=
EXTT5=
EXTT6=
EXTT7=
EXTT8=
EXTT9=
EXTT10=
EXTT11=
EXTT12=
EXTT13=
EXTT14=
EXTT15=
EXTT16=
EXTT17=
EXTT18=
EXTT19=
PLAYORDER=
